<svg xmlns="http://www.w3.org/2000/svg" fill-rule="evenodd" clip-rule="evenodd" viewBox="0 0 40 40"><rect fill="black " x="0" y="0" width="40" height="40" rx="15" ry="15" /><path d="M22 13c-.027-5.497-4.497-10-10-10s-9.973 4.503-10 10h2.5c.828 0 1.5.672 1.5 1.5v7c0 .828-.672 1.5-1.5 1.5h-3c-.828 0-1.5-.672-1.5-1.5v-8.5c.027-6.601 5.394-12 12-12s11.973 5.399 12 12v8.5c0 .828-.672 1.5-1.5 1.5h-3c-.828 0-1.5-.672-1.5-1.5v-7c0-.828.672-1.5 1.5-1.5h2.5z" transform="translate(7, 7)" fill="white" /></svg>